<?xml version="1.0" standalone="no"?>
<!DOCTYPE svg PUBLIC "-//W3C//DTD SVG 20010904//EN"
 "http://www.w3.org/TR/2001/REC-SVG-20010904/DTD/svg10.dtd">
<svg version="1.0" xmlns="http://www.w3.org/2000/svg"
 width="512.000000pt" height="512.000000pt" viewBox="0 0 512.000000 512.000000"
 preserveAspectRatio="xMidYMid meet">

<g transform="translate(0.000000,512.000000) scale(0.100000,-0.100000)"
fill="#000000" stroke="none">
<path d="M2410 4954 c-323 -28 -562 -91 -825 -219 -190 -92 -181 -70 -96 -213
40 -67 74 -122 77 -122 2 0 50 23 107 51 557 280 1208 279 1763 -1 l131 -66
77 125 c71 117 75 127 59 140 -35 27 -300 150 -388 181 -230 80 -447 119 -690
124 -93 2 -190 2 -215 0z"/>
<path d="M4423 2131 c-136 -405 -377 -743 -704 -985 -53 -39 -104 -76 -114
-81 -16 -10 -9 -24 61 -137 l78 -126 41 26 c81 53 234 174 319 253 181 169
358 412 471 644 78 159 140 334 122 341 -6 2 -70 22 -140 43 -114 34 -129 37
-134 22z"/>
<path d="M536 2101 c-66 -20 -121 -42 -123 -48 -5 -14 59 -186 112 -298 156
-337 435 -668 744 -884 41 -28 78 -50 83 -49 4 2 41 57 83 122 l74 119 -82 57
c-315 222 -577 566 -707 928 -23 66 -37 92 -49 91 -9 -1 -70 -18 -135 -38z"/>
<path d="M2560 957 l0 -797 595 0 c327 0 595 1 595 3 0 2 -268 361 -595 797
l-595 793 0 -796z"/>
</g>
</svg>
