<?xml version="1.0" standalone="no"?>
<!DOCTYPE svg PUBLIC "-//W3C//DTD SVG 20010904//EN"
 "http://www.w3.org/TR/2001/REC-SVG-20010904/DTD/svg10.dtd">
<svg version="1.0" xmlns="http://www.w3.org/2000/svg"
 width="512.000000pt" height="512.000000pt" viewBox="0 0 512.000000 512.000000"
 preserveAspectRatio="xMidYMid meet">

<g transform="translate(0.000000,512.000000) scale(0.100000,-0.100000)"
fill="#000000" stroke="none">
<path d="M80 4320 l0 -720 246 0 c193 0 245 -3 241 -12 -122 -273 -160 -386
-202 -592 -13 -65 -25 -119 -27 -120 -2 -2 -24 -10 -50 -20 -74 -27 -130 -77
-169 -147 -31 -59 -34 -71 -34 -149 0 -78 3 -90 34 -149 39 -70 95 -120 169
-147 26 -10 49 -19 50 -20 2 -1 12 -44 22 -96 18 -90 45 -202 56 -232 4 -11
-19 -27 -86 -61 -219 -110 -284 -250 -235 -510 91 -486 411 -902 860 -1120
281 -136 566 -181 709 -111 74 36 136 107 191 216 34 68 50 90 61 86 25 -10
165 -44 229 -56 99 -18 105 -20 105 -33 0 -27 50 -116 84 -151 20 -20 60 -48
89 -63 45 -24 64 -28 137 -28 78 0 90 3 148 34 72 39 115 88 148 169 l23 56
95 17 c306 54 628 190 878 371 l68 48 0 -93 c0 -127 14 -198 60 -293 73 -152
232 -274 394 -303 110 -20 106 -23 106 68 l0 79 -55 7 c-75 9 -183 65 -235
121 -23 25 -56 75 -73 112 l-32 67 0 256 0 255 37 76 c45 91 103 147 196 191
61 29 76 32 163 32 90 0 99 -2 171 -37 91 -45 147 -103 191 -196 l32 -67 3
-382 3 -383 -25 -25 c-33 -33 -79 -33 -111 0 l-25 24 0 352 c0 247 -4 364 -12
393 -16 55 -99 138 -154 154 -94 28 -169 8 -239 -63 -69 -68 -75 -94 -75 -325
0 -231 6 -256 75 -326 59 -59 117 -80 195 -71 l50 6 0 -61 c0 -91 17 -136 75
-193 101 -101 229 -101 331 0 76 75 76 77 72 530 l-3 390 -26 66 c-38 97 -74
154 -141 220 -68 67 -194 135 -271 145 -26 4 -47 10 -47 14 0 3 22 56 49 116
81 181 122 316 177 591 2 13 10 23 17 23 27 0 116 50 151 84 20 20 48 60 63
89 24 45 28 64 28 137 0 78 -3 90 -34 149 -39 72 -98 122 -173 149 -33 11 -50
24 -53 37 -2 11 -11 58 -20 105 -9 47 -18 93 -21 103 -5 15 2 17 47 17 28 0
70 5 93 12 55 16 138 99 154 154 17 59 17 1529 0 1588 -16 55 -99 138 -154
154 -30 9 -164 12 -474 12 -310 0 -444 -3 -474 -12 -55 -16 -138 -99 -154
-154 -8 -26 -12 -111 -12 -232 l0 -190 -110 63 c-190 108 -438 200 -650 240
-129 24 -130 25 -130 38 0 27 -50 116 -84 151 -114 113 -287 126 -418 30 -48
-34 -104 -115 -115 -167 -3 -17 -13 -29 -27 -32 -11 -2 -56 -11 -98 -19 -42
-9 -88 -18 -102 -22 l-26 -6 0 156 0 156 -960 0 -960 0 0 -720z m1639 541 c-8
-11 -135 -155 -284 -320 l-270 -300 -125 0 -125 0 -260 290 c-143 159 -271
303 -284 319 l-24 30 693 0 c682 0 692 0 679 -19z m908 -1 c134 -60 113 -251
-32 -291 -104 -29 -209 78 -185 186 12 53 37 85 83 106 53 24 81 23 134 -1z
m2224 -9 c24 -25 29 -37 29 -80 l0 -51 -480 0 -480 0 0 51 c0 43 5 55 29 80
l29 29 422 0 422 0 29 -29z m-4354 -387 c136 -152 249 -280 251 -284 2 -5
-112 -86 -252 -180 l-256 -170 0 455 c0 250 2 455 4 455 2 0 116 -124 253
-276z m1339 -621 c-6 -6 -507 329 -504 338 2 4 116 132 253 285 l250 277 3
-448 c1 -246 0 -450 -2 -452z m450 719 c57 -107 176 -170 300 -159 110 11 217
83 258 175 l18 39 76 -14 c259 -47 540 -159 754 -300 l68 -45 0 -465 c0 -328
3 -477 12 -505 15 -49 76 -120 125 -144 34 -17 71 -20 353 -24 l314 -5 22 -90
c38 -163 38 -160 -6 -180 -53 -24 -115 -86 -147 -148 -24 -45 -28 -64 -28
-137 0 -73 4 -92 28 -137 32 -62 94 -124 147 -148 46 -21 46 -17 -5 -220 -43
-169 -85 -282 -159 -429 l-61 -119 -61 -22 c-87 -31 -143 -66 -207 -130 -87
-87 -145 -203 -162 -322 -7 -51 -7 -51 -113 -131 -260 -193 -528 -315 -829
-376 l-118 -24 -21 42 c-30 57 -86 111 -147 144 -45 23 -64 27 -137 27 -73 0
-92 -4 -137 -28 -64 -33 -116 -83 -145 -141 l-23 -44 -117 24 c-64 13 -141 32
-170 41 -49 17 -53 20 -61 59 -11 61 -66 144 -121 185 -55 42 -257 124 -344
141 -119 22 -260 -13 -364 -89 l-62 -46 -35 19 c-46 24 -121 99 -145 145 l-19
37 35 43 c93 115 129 273 93 411 -26 101 -103 278 -140 324 -42 51 -109 93
-174 109 -44 11 -47 15 -64 64 -9 28 -28 105 -41 169 l-24 117 44 23 c58 29
108 81 141 145 24 45 28 64 28 137 0 73 -4 92 -28 138 -33 64 -91 122 -146
146 -47 22 -47 17 4 221 42 166 83 278 154 418 l56 112 622 3 623 2 2 482 3
482 35 9 c31 8 197 45 210 46 3 0 19 -25 36 -57z m2594 -482 l0 -480 -480 0
-480 0 0 480 0 480 480 0 480 0 0 -480z m-3474 -157 l237 -158 -302 -3 c-165
-1 -437 -1 -602 0 l-302 3 234 157 234 157 133 0 132 1 236 -157z m3474 -534
c0 -43 -5 -55 -29 -80 l-29 -29 -422 0 -422 0 -29 29 c-24 25 -29 37 -29 80
l0 51 480 0 480 0 0 -51z m-4441 -679 c80 -23 132 -112 111 -189 -13 -48 -74
-106 -121 -115 -106 -20 -208 88 -180 192 16 59 85 116 146 121 6 1 26 -3 44
-9z m4320 0 c80 -23 132 -112 111 -189 -13 -48 -74 -106 -121 -115 -106 -20
-208 88 -180 192 16 59 85 116 146 121 6 1 26 -3 44 -9z m-4144 -969 c60 -27
79 -54 132 -186 41 -103 48 -130 48 -190 0 -99 -24 -155 -103 -237 l-64 -67
16 -48 c53 -160 209 -316 368 -369 l49 -16 64 61 c84 81 138 105 235 105 67 1
88 -4 195 -47 132 -54 167 -79 191 -144 23 -59 13 -107 -43 -215 -55 -106 -91
-136 -177 -145 -143 -15 -413 67 -611 185 -189 113 -375 298 -487 487 -118
198 -197 456 -185 603 7 91 35 128 138 182 127 66 166 73 234 41z m3920 -726
c25 -24 25 -26 25 -215 0 -189 0 -191 -25 -215 -32 -33 -78 -33 -110 0 -25 24
-25 26 -25 215 0 189 0 191 25 215 15 16 36 25 55 25 19 0 40 -9 55 -25z
m-1936 -465 c80 -23 132 -112 111 -189 -13 -48 -74 -106 -121 -115 -106 -20
-208 88 -180 192 16 59 85 116 146 121 6 1 26 -3 44 -9z"/>
<path d="M2480 4000 l0 -240 80 0 80 0 0 240 0 240 -80 0 -80 0 0 -240z"/>
<path d="M2405 3590 c-141 -22 -327 -97 -445 -181 -74 -52 -192 -170 -245
-244 -91 -128 -163 -306 -184 -459 -78 -560 306 -1080 864 -1171 563 -92 1098
295 1190 860 77 471 -181 935 -624 1124 -117 50 -223 72 -366 76 -71 2 -157 0
-190 -5z m198 -164 c60 -25 136 -136 182 -265 l14 -41 -239 0 -240 0 26 67
c45 120 111 214 169 239 38 17 49 17 88 0z m-376 -103 c-14 -26 -37 -83 -52
-125 l-28 -78 -129 0 -128 0 16 24 c18 29 99 99 166 144 51 35 169 94 176 88
2 -2 -8 -26 -21 -53z m773 -5 c67 -37 183 -131 211 -169 l20 -29 -129 0 -129
0 -28 78 c-15 42 -38 98 -51 124 -13 26 -24 50 -24 53 0 8 66 -21 130 -57z
m-894 -395 c-3 -21 -11 -93 -18 -160 l-11 -123 -194 0 -193 0 0 28 c0 43 37
178 64 239 l25 53 167 0 167 0 -7 -37z m737 15 c7 -30 25 -168 31 -240 l5 -58
-319 0 -319 0 5 58 c6 72 24 210 31 240 l5 22 278 0 278 0 5 -22z m523 -31
c27 -61 64 -196 64 -239 l0 -28 -193 0 -194 0 -11 123 c-7 67 -15 139 -18 160
l-7 37 167 0 167 0 25 -53z m-1278 -549 c7 -68 15 -140 18 -160 l7 -38 -167 0
-167 0 -25 53 c-27 61 -64 196 -64 239 l0 28 193 0 194 0 11 -122z m786 65
c-6 -73 -24 -211 -31 -240 l-5 -23 -278 0 -278 0 -5 23 c-7 29 -25 167 -31
240 l-5 57 319 0 319 0 -5 -57z m556 29 c0 -43 -37 -178 -64 -239 l-25 -53
-167 0 -167 0 7 38 c3 20 11 92 18 160 l11 122 194 0 193 0 0 -28z m-1255
-529 c15 -43 38 -100 52 -126 13 -27 23 -51 21 -53 -7 -6 -125 53 -176 88 -67
45 -148 115 -166 144 l-16 24 128 0 129 0 28 -77z m610 36 c-48 -135 -128
-249 -190 -269 -87 -29 -182 64 -250 243 l-25 67 240 0 239 0 -14 -41z m426
12 c-35 -48 -156 -141 -247 -187 -48 -25 -88 -43 -91 -40 -2 2 6 26 20 53 20
40 58 140 73 191 2 9 38 12 134 12 l131 0 -20 -29z"/>
<path d="M880 2560 l0 -80 240 0 240 0 0 80 0 80 -240 0 -240 0 0 -80z"/>
<path d="M3760 2560 l0 -80 240 0 240 0 0 80 0 80 -240 0 -240 0 0 -80z"/>
<path d="M2480 1120 l0 -240 80 0 80 0 0 240 0 240 -80 0 -80 0 0 -240z"/>
</g>
</svg>
