<svg
      width="49"
      height="33"
      viewBox="0 0 49 33"
      fill="none"
      xmlns="http://www.w3.org/2000/svg"
    >
      <path
        fillRule="evenodd"
        clipRule="evenodd"
        d="M0.612549 0.438115H13.052C14.4251 0.394614 15.7901 0.66341 17.0425 1.22394C18.2949 1.78447 19.4015 2.62188 20.2777 3.67212C22.2902 5.93001 23.0217 8.72242 23.0217 11.646C23.0217 14.5695 22.2898 17.4049 20.2777 19.6641C19.3799 20.6858 18.2681 21.5006 17.02 22.0515C15.772 22.6024 14.4177 22.8762 13.052 22.8538H0.612549V16.8287H13.052C14.378 16.8287 15.5217 16.4301 16.2532 15.4553C17.0588 14.3509 17.4619 13.0074 17.3964 11.6455C17.4417 10.2999 17.04 8.97683 16.2532 7.88005C15.8741 7.40529 15.3851 7.02845 14.8277 6.78161C14.2704 6.53478 13.6612 6.42525 13.052 6.46235H0.612549V0.438115Z"
        fill="#FE4E30"
      />
      <path
        d="M34.6343 0.434204H39.848V11.0793H34.6343V0.434204Z"
        fill="#FE4E30"
      />
      <path
        fillRule="evenodd"
        clipRule="evenodd"
        d="M48.7704 0.434204V12.8648C48.7704 15.8482 47.7642 18.2889 45.4318 20.1422C43.1377 21.9599 40.2729 22.9199 37.3381 22.8542C34.2756 22.8542 31.4384 22.1308 29.1061 20.1422C28.039 19.2521 27.1856 18.137 26.608 16.878C26.0305 15.619 25.7433 14.2479 25.7675 12.8648V0.434204H31.8488V12.8648C31.8065 13.5244 31.9307 14.1841 32.2103 14.784C32.4898 15.3839 32.9158 15.9051 33.4496 16.3003C34.4558 17.1591 35.9193 17.4292 37.3368 17.4292C38.7352 17.4758 40.1124 17.0805 41.2699 16.3003C42.4131 15.4414 42.8248 14.3116 42.8248 12.8648V0.434204H48.7704Z"
        fill="#FE4E30"
      />
      <path
        d="M0.435791 32.5202V28.1911H2.06154C2.39364 28.1898 2.72495 28.2235 3.04985 28.2919C3.34738 28.3519 3.62993 28.4699 3.8811 28.6392C4.12451 28.8079 4.32226 29.0336 4.45685 29.2962C4.61138 29.6183 4.68536 29.9726 4.67254 30.3292C4.68097 30.6686 4.6103 31.0053 4.46604 31.3131C4.33735 31.5791 4.14874 31.8122 3.91479 31.9944C3.67787 32.1751 3.40814 32.309 3.12029 32.3886C2.81593 32.4755 2.50074 32.5194 2.18404 32.5189L0.435791 32.5202ZM1.84585 29.4277V31.2736H2.11666C2.39947 31.292 2.68005 31.2132 2.91116 31.0504C3.01034 30.9576 3.08685 30.8436 3.13485 30.7171C3.18284 30.5905 3.20106 30.4547 3.1881 30.3201C3.19482 30.1969 3.1734 30.0739 3.12544 29.9601C3.07749 29.8463 3.00423 29.7448 2.91116 29.6631C2.70192 29.498 2.43919 29.4143 2.17223 29.4277H1.84585ZM7.24679 32.6409C6.94408 32.6471 6.64271 32.5994 6.35691 32.5002C6.12164 32.4171 5.90657 32.2859 5.7256 32.1151C5.55796 31.9532 5.42947 31.7558 5.34979 31.5376C5.26633 31.3073 5.22471 31.0641 5.22685 30.8194V28.1911H6.69248V30.6605C6.68177 30.8352 6.73541 31.0079 6.84341 31.1464C6.89706 31.2053 6.96336 31.2515 7.03742 31.2816C7.11148 31.3116 7.19141 31.3248 7.27129 31.32C7.35116 31.3248 7.43109 31.3116 7.50516 31.2816C7.57922 31.2515 7.64552 31.2053 7.69916 31.1464C7.80717 31.0079 7.8608 30.8352 7.8501 30.6605V28.1911H9.3096V30.8194C9.31205 31.0649 9.26751 31.3086 9.17835 31.5376C9.09232 31.7563 8.95877 31.9534 8.78723 32.1151C8.60168 32.286 8.38259 32.4171 8.14366 32.5002C7.85591 32.5988 7.5529 32.6463 7.24854 32.6405L7.24679 32.6409ZM11.3593 30.0739L11.4271 32.5185H10.0608V28.1911H11.9762L12.7637 30.5198H12.7943L13.4777 28.1911H15.4543V32.5202H14.0315L14.0753 30.0886L14.0385 30.0825L13.2283 32.5202H12.1936L11.393 30.0756L11.3593 30.0739ZM17.6344 29.3222V29.8541H18.0281C18.1193 29.8593 18.2097 29.8349 18.2858 29.7847C18.3191 29.7595 18.3456 29.7265 18.3628 29.6885C18.38 29.6506 18.3874 29.609 18.3842 29.5676C18.3858 29.5304 18.3768 29.4935 18.3583 29.4611C18.3398 29.4287 18.3126 29.4021 18.2797 29.3843C18.1944 29.3399 18.0989 29.3188 18.0027 29.3231L17.6344 29.3222ZM17.6344 30.789V31.3756H18.0719C18.171 31.38 18.269 31.3533 18.3519 31.2992C18.3873 31.274 18.4157 31.2403 18.4345 31.2013C18.4533 31.1623 18.4619 31.1192 18.4595 31.076C18.4615 31.0251 18.4451 30.9752 18.4131 30.9353C18.3816 30.8989 18.3429 30.8693 18.2994 30.8485C18.2537 30.8259 18.2049 30.8103 18.1545 30.8025C18.1067 30.7946 18.0582 30.7906 18.0097 30.7903L17.6344 30.789ZM19.1184 30.2679C19.2241 30.2935 19.3256 30.3336 19.4202 30.3869C19.5189 30.4421 19.6082 30.5123 19.6849 30.5949C19.7637 30.6798 19.8263 30.7782 19.8695 30.8854C19.916 31.0021 19.939 31.1268 19.9374 31.2523C19.9444 31.4602 19.8943 31.6662 19.7925 31.848C19.6983 32.0065 19.5673 32.1405 19.4106 32.2388C19.2444 32.342 19.0607 32.4145 18.8685 32.4529C18.663 32.4959 18.4534 32.5175 18.2434 32.5172H16.2667V28.1911H18.0605C18.249 28.1919 18.4372 28.2051 18.624 28.2306C18.815 28.2547 19.001 28.3084 19.1752 28.3896C19.3424 28.4679 19.4866 28.5875 19.5939 28.7369C19.7121 28.915 19.7703 29.1257 19.7602 29.3387C19.7686 29.5443 19.707 29.7467 19.5852 29.9132C19.4649 30.0663 19.3038 30.1827 19.1201 30.2493L19.1184 30.2679ZM22.7934 32.5172H21.3155L20.1268 28.1898H21.6786L22.1467 30.6214H22.1712L22.6761 28.1898H24.2073L24.7555 30.6214H24.78L25.2543 28.1898H26.7571L25.5509 32.5202H24.073L23.457 30.0756H23.4325L22.7934 32.5172ZM28.3059 28.1898H29.8638L31.5635 32.5172H29.9683L29.7404 31.8815H28.3549L28.1392 32.5172H26.5874L28.3059 28.1898ZM29.0632 29.6996L28.7062 30.769H29.4145L29.0632 29.6996ZM34.0616 32.5202H32.596V30.7477L30.9519 28.1929H32.7193L33.4093 29.4642L34.0682 28.1929H35.7924L34.062 30.7477L34.0616 32.5202ZM37.4793 32.6426C37.3049 32.6427 37.1308 32.6273 36.9592 32.5966C36.7912 32.5667 36.6263 32.5216 36.4665 32.462C36.3123 32.4047 36.1629 32.3351 36.0199 32.254C35.8857 32.1785 35.7598 32.0895 35.644 31.9883L36.537 31.0226C36.6549 31.1438 36.7935 31.2431 36.9465 31.3161C37.1086 31.4003 37.2885 31.4449 37.4715 31.4464C37.5486 31.4472 37.6251 31.4324 37.6964 31.403C37.7289 31.3907 37.7566 31.3682 37.775 31.3389C37.7934 31.3095 37.8016 31.275 37.7983 31.2406C37.7994 31.2032 37.7875 31.1665 37.7646 31.1368C37.7307 31.1004 37.69 31.0709 37.6447 31.05C37.568 31.0112 37.4888 30.9775 37.4076 30.9492C37.307 30.9125 37.1807 30.869 37.0287 30.819C36.8832 30.7711 36.7412 30.7131 36.6039 30.6453C36.4724 30.5807 36.351 30.4973 36.2439 30.3978C36.138 30.2983 36.0532 30.1789 35.9945 30.0465C35.9292 29.8908 35.8977 29.7231 35.9022 29.5545C35.8946 29.3156 35.952 29.0791 36.0684 28.8698C36.1752 28.6866 36.3213 28.5291 36.4963 28.4082C36.6744 28.2861 36.8738 28.1978 37.0843 28.1477C37.2958 28.0955 37.5129 28.0688 37.7309 28.0682C38.0311 28.0706 38.3283 28.1265 38.6085 28.2332C38.8995 28.3394 39.1664 28.5017 39.3939 28.7109L38.4825 29.6336C38.3861 29.513 38.2614 29.4176 38.1194 29.3557C37.9981 29.2978 37.8659 29.2656 37.7313 29.261C37.6428 29.2576 37.5546 29.2733 37.4728 29.307C37.4428 29.3189 37.4172 29.3396 37.3996 29.3664C37.382 29.3933 37.3732 29.4248 37.3744 29.4568C37.3743 29.4886 37.3839 29.5197 37.4021 29.5459C37.4202 29.5721 37.4459 29.5922 37.4759 29.6036C37.583 29.6511 37.693 29.692 37.8053 29.7261C37.9613 29.775 38.1255 29.832 38.2979 29.8971C38.4674 29.9607 38.6279 30.046 38.7752 30.1507C38.9195 30.2532 39.0419 30.3831 39.1353 30.5328C39.2349 30.7033 39.2841 30.8982 39.277 31.0951C39.2827 31.3317 39.2287 31.5658 39.12 31.7764C39.0194 31.9651 38.8786 32.1299 38.7074 32.2592C38.5346 32.3889 38.3395 32.4863 38.1317 32.5467C37.92 32.6092 37.7002 32.6408 37.4793 32.6405V32.6426ZM39.7395 31.8298C39.7387 31.7235 39.7608 31.6182 39.8042 31.5211C39.8464 31.4266 39.9071 31.3415 39.9827 31.2705C40.06 31.1984 40.1497 31.1404 40.2474 31.0995C40.3476 31.0567 40.4556 31.0348 40.5646 31.0352C40.6701 31.0347 40.7746 31.0566 40.8708 31.0995C40.9655 31.141 41.0521 31.199 41.1264 31.2705C41.2003 31.3422 41.2597 31.4272 41.3014 31.5211C41.3448 31.6182 41.3669 31.7235 41.3661 31.8298C41.3667 31.9371 41.3446 32.0433 41.3014 32.1416C41.2607 32.236 41.2012 32.3212 41.1264 32.3921C41.0518 32.4618 40.9653 32.5177 40.8708 32.5571C40.774 32.5981 40.6698 32.6189 40.5646 32.6183C40.4559 32.6187 40.3481 32.5979 40.2474 32.5571C40.1499 32.5183 40.0603 32.4624 39.9827 32.3921C39.9062 32.3219 39.8454 32.2366 39.8042 32.1416C39.7604 32.0419 39.7383 31.9342 39.7395 31.8255V31.8298ZM42.0674 28.1933H43.5453V32.5202H42.0674V28.1933ZM44.3582 32.5206V28.1911H45.9839C46.316 28.1898 46.6473 28.2235 46.9722 28.2919C47.2698 28.3519 47.5523 28.4699 47.8035 28.6392C48.0469 28.8079 48.2446 29.0336 48.3792 29.2962C48.5337 29.6183 48.6077 29.9726 48.5949 30.3292C48.6033 30.6686 48.5327 31.0053 48.3884 31.3131C48.2597 31.5791 48.0711 31.8122 47.8372 31.9944C47.6002 32.1751 47.3305 32.309 47.0427 32.3886C46.7383 32.4755 46.4231 32.5194 46.1064 32.5189L44.3582 32.5206ZM45.7682 29.4282V31.274H46.039C46.3218 31.2925 46.6024 31.2136 46.8335 31.0508C46.9327 30.9581 47.0092 30.8441 47.0572 30.7175C47.1052 30.5909 47.1234 30.4551 47.1105 30.3205C47.1172 30.1973 47.0958 30.0743 47.0478 29.9605C46.9999 29.8468 46.9266 29.7452 46.8335 29.6635C46.6243 29.4984 46.3616 29.4148 46.0946 29.4282H45.7682Z"
        fill="#FE4E30"
      />
    </svg>