<svg width="50" height="32" viewBox="0 0 50 32" fill="none" xmlns="http://www.w3.org/2000/svg">
<g clip-path="url(#clip0_1800_7530)">
<path d="M6.0768 16C8.32405 16 10.2732 14.8552 11.2593 13.1044L8.25528 11.4209C7.88838 12.2065 7.03993 12.6779 6.03091 12.6779C4.54041 12.6779 3.4397 11.6229 3.4397 10.0741C3.4397 8.52526 4.54041 7.47025 6.03091 7.47025C7.03993 7.47025 7.86544 7.94163 8.25528 8.72729L11.2593 7.02132C10.2732 5.29294 8.30111 4.14816 6.0768 4.14816C2.59123 4.14816 0 6.72951 0 10.0741C0 13.4186 2.59123 16 6.0768 16Z" fill="#080522"/>
<path d="M18.3703 16C21.6574 16 24.2962 13.4186 24.2962 10.0741C24.2962 6.72951 21.6574 4.14816 18.3703 4.14816C15.083 4.14816 12.4443 6.72951 12.4443 10.0741C12.4443 13.4186 15.083 16 18.3703 16ZM18.3703 12.7228C16.9167 12.7228 15.7986 11.6678 15.7986 10.0741C15.7986 8.4804 16.9167 7.42538 18.3703 7.42538C19.8238 7.42538 20.9419 8.4804 20.9419 10.0741C20.9419 11.6678 19.8238 12.7228 18.3703 12.7228Z" fill="#080522"/>
<path d="M34.4563 0V5.535C33.693 4.68346 32.5595 4.16806 31.0098 4.16806C27.9796 4.16806 25.4814 6.74507 25.4814 10.084C25.4814 13.4229 27.9796 16 31.0098 16C32.5595 16 33.693 15.4846 34.4563 14.633V15.6863H37.9259V0H34.4563ZM31.7037 12.8179C30.1077 12.8179 28.9511 11.7647 28.9511 10.084C28.9511 8.40338 30.1077 7.35014 31.7037 7.35014C33.2997 7.35014 34.4563 8.40338 34.4563 10.084C34.4563 11.7647 33.2997 12.8179 31.7037 12.8179Z" fill="#080522"/>
<path d="M39.1113 4.14816H49.1854V7.11113H39.1113V4.14816Z" fill="#7C51FF"/>
<path d="M42.0742 8.2963H49.1853V11.2593H42.0742V8.2963Z" fill="#7C51FF"/>
<path d="M39.1113 13.037H49.1854V16H39.1113V13.037Z" fill="#7C51FF"/>
<path d="M6.0768 31.4074C8.32405 31.4074 10.2732 30.2626 11.2593 28.5118L8.25528 26.8283C7.88838 27.6139 7.03993 28.0853 6.03091 28.0853C4.54041 28.0853 3.4397 27.0303 3.4397 25.4815C3.4397 23.9326 4.54041 22.8777 6.03091 22.8777C7.03993 22.8777 7.86544 23.349 8.25528 24.1347L11.2593 22.4287C10.2732 20.7003 8.30111 19.5555 6.0768 19.5555C2.59123 19.5555 0 22.1369 0 25.4815C0 28.826 2.59123 31.4074 6.0768 31.4074Z" fill="#080522"/>
<path d="M12.4443 17.1852V31.4074H15.9999V17.1852H12.4443Z" fill="#080522"/>
<path d="M26.1599 19.8698V20.9248C25.3966 20.0718 24.2632 19.5555 22.7134 19.5555C19.6832 19.5555 17.1851 22.1369 17.1851 25.4815C17.1851 28.826 19.6832 31.4074 22.7134 31.4074C24.2632 31.4074 25.3966 30.8911 26.1599 30.0381V31.0931H29.6295V19.8698H26.1599ZM23.4073 28.22C21.8113 28.22 20.6547 27.1649 20.6547 25.4815C20.6547 23.798 21.8113 22.743 23.4073 22.743C25.0034 22.743 26.1599 23.798 26.1599 25.4815C26.1599 27.1649 25.0034 28.22 23.4073 28.22Z" fill="#080522"/>
<path d="M34.6888 28.2548L38.8888 22.4V20.1481H30.4444V23.3007H34.4222L30.2222 29.1555V31.4074H39.1111V28.2548H34.6888Z" fill="#080522"/>
<path d="M45.3554 28.2548L49.5553 22.4V20.1481H41.1109V23.3007H45.0887L40.8887 29.1555V31.4074H49.7776V28.2548H45.3554Z" fill="#080522"/>
</g>
<defs>
<clipPath id="clip0_1800_7530">
<rect width="49.7778" height="32" fill="white"/>
</clipPath>
</defs>
</svg>
