<svg width="407" height="100" viewBox="0 0 407 100" fill="none" xmlns="http://www.w3.org/2000/svg">
<path fill-rule="evenodd" clip-rule="evenodd" d="M100 50C100 77.6142 77.6142 100 50 100C22.3858 100 0 77.6142 0 50C0 22.3858 22.3858 0 50 0C77.6142 0 100 22.3858 100 50ZM69.8997 89.98C63.9081 92.968 57.1503 94.6488 50 94.6488C41.3749 94.6488 33.321 92.2032 26.4939 87.9675L30.7692 79.2642C30.7692 79.2642 31.2709 78.0937 31.2709 76.9231L31.3344 45.8843C34.6534 44.6597 37.0201 41.4681 37.0201 37.7237C37.0201 32.9213 33.1269 29.0281 28.3244 29.0281C23.5219 29.0281 19.6287 32.9213 19.6287 37.7237C19.6287 41.5927 22.1555 44.8715 25.6488 46L25.5853 75.2508C25.5853 75.2508 25.6419 76.2725 25.5853 76.9231C25.4399 78.5953 25.0836 79.2642 25.0836 79.2642L22.197 84.938C11.9308 76.7575 5.35118 64.1471 5.35118 50C5.35118 25.3411 25.3411 5.35117 50 5.35117C50.7744 5.35117 51.5441 5.37088 52.3088 5.40983L46.4883 18.8963C46.4883 18.8963 45.9866 20.0669 45.9866 21.2375L46.3211 57.4735C43.0021 58.6982 40.6355 61.8898 40.6355 65.6341C40.6355 70.4366 44.5286 74.3298 49.3311 74.3298C54.1336 74.3298 58.0268 70.4366 58.0268 65.6341C58.0268 61.7652 55.5 58.4864 52.0067 57.3579L51.6722 22.9097C51.6722 22.9097 51.6157 21.8881 51.6722 21.2375C51.8177 19.5652 52.1739 18.8963 52.1739 18.8963L58.3548 6.13153C79.0204 10.0434 94.6488 28.1966 94.6488 50C94.6488 65.1412 87.112 78.5221 75.5853 86.5958V83.2776L75.3144 45.8843C78.6334 44.6597 81 41.4681 81 37.7237C81 32.9213 77.1068 29.0281 72.3043 29.0281C67.5019 29.0281 63.6087 32.9213 63.6087 37.7237C63.6087 41.5927 66.1354 44.8715 69.6288 46L69.8997 81.6054V89.98ZM45.3177 65.6341C45.3177 63.4176 47.1146 61.6207 49.3311 61.6207C51.5476 61.6207 53.3445 63.4176 53.3445 65.6341C53.3445 67.8506 51.5476 69.6475 49.3311 69.6475C47.1146 69.6475 45.3177 67.8506 45.3177 65.6341ZM32.3378 37.7237C32.3378 39.9403 30.5409 41.7371 28.3244 41.7371C26.1079 41.7371 24.311 39.9403 24.311 37.7237C24.311 35.5072 26.1079 33.7104 28.3244 33.7104C30.5409 33.7104 32.3378 35.5072 32.3378 37.7237ZM72.3043 41.7371C74.5209 41.7371 76.3177 39.9403 76.3177 37.7237C76.3177 35.5072 74.5209 33.7104 72.3043 33.7104C70.0878 33.7104 68.291 35.5072 68.291 37.7237C68.291 39.9403 70.0878 41.7371 72.3043 41.7371Z" fill="#130F40"/>
<path d="M157.622 32.1045C152.852 32.1045 149.762 33.8507 147.88 36.5373C145.999 33.7164 143.043 32.1045 139.08 32.1045C134.578 32.1045 131.622 33.8507 130.077 36.1343V33.0448H120V66.6269H130.077V47.6866C130.077 43.7239 131.958 41.3731 135.317 41.3731C138.542 41.3731 140.155 43.5224 140.155 46.8806V66.6269H150.232V47.6866C150.232 43.7239 152.113 41.3731 155.472 41.3731C158.697 41.3731 160.309 43.5224 160.309 46.8806V66.6269H170.386V46.0075C170.386 37.6119 165.348 32.1045 157.622 32.1045Z" fill="#130F40"/>
<path d="M182.314 30.0896C185.606 30.0896 188.36 27.3358 188.36 24.0448C188.36 20.7537 185.606 18 182.314 18C179.022 18 176.267 20.7537 176.267 24.0448C176.267 27.3358 179.022 30.0896 182.314 30.0896ZM177.275 66.6269H187.352V49.8358V33.0448H177.275V66.6269Z" fill="#130F40"/>
<path d="M210.85 67.5672C217.434 67.5672 223.145 64.1418 226.033 58.903L217.232 53.8657C216.158 56.2164 213.672 57.6269 210.716 57.6269C206.349 57.6269 203.124 54.4701 203.124 49.8358C203.124 45.2015 206.349 42.0448 210.716 42.0448C213.672 42.0448 216.09 43.4552 217.232 45.806L226.033 40.7015C223.145 35.5299 217.367 32.1045 210.85 32.1045C200.639 32.1045 193.047 39.8284 193.047 49.8358C193.047 59.8433 200.639 67.5672 210.85 67.5672Z" fill="#130F40"/>
<path d="M240.494 39.0224V33.0448H230.417V66.6269H240.494V51.4478C240.494 44.7985 246.406 43.1194 250.571 43.791V32.3731C246.339 32.3731 241.838 34.5224 240.494 39.0224Z" fill="#130F40"/>
<path d="M270.422 67.5672C280.297 67.5672 288.225 59.8433 288.225 49.8358C288.225 39.8284 280.297 32.1045 270.422 32.1045C260.546 32.1045 252.618 39.8284 252.618 49.8358C252.618 59.8433 260.546 67.5672 270.422 67.5672ZM270.422 57.7612C266.055 57.7612 262.696 54.6045 262.696 49.8358C262.696 45.0672 266.055 41.9104 270.422 41.9104C274.788 41.9104 278.147 45.0672 278.147 49.8358C278.147 54.6045 274.788 57.7612 270.422 57.7612Z" fill="#130F40"/>
<path d="M318.58 33.0448V36.4701C316.363 33.7164 313.139 32.1045 308.772 32.1045C299.232 32.1045 292.245 39.8955 292.245 49.1642C292.245 58.4328 299.232 66.2239 308.772 66.2239C313.139 66.2239 316.363 64.6119 318.58 61.8582V64.9478C318.58 69.7164 315.692 72.1343 310.989 72.1343C306.555 72.1343 304.607 70.2537 303.33 67.903L294.731 72.8731C297.821 78.3806 303.666 81 310.653 81C319.588 81 328.389 76.2313 328.389 64.9478V33.0448H318.58ZM310.451 56.9552C305.681 56.9552 302.322 53.7985 302.322 49.1642C302.322 44.5299 305.681 41.3731 310.451 41.3731C315.221 41.3731 318.58 44.5299 318.58 49.1642C318.58 53.7985 315.221 56.9552 310.451 56.9552Z" fill="#130F40"/>
<path d="M344.784 53.8657H368.634C368.903 52.5896 369.037 51.2463 369.037 49.8358C369.037 39.694 361.781 32.1045 351.973 32.1045C341.358 32.1045 334.103 39.8284 334.103 49.8358C334.103 59.8433 341.224 67.5672 352.712 67.5672C359.094 67.5672 364.066 65.2164 367.357 60.6493L359.296 56.0149C357.952 57.4925 355.601 58.5672 352.846 58.5672C349.151 58.5672 346.061 57.3582 344.784 53.8657ZM344.583 46.3433C345.523 42.9179 348.076 41.0373 351.906 41.0373C354.929 41.0373 357.952 42.4478 359.027 46.3433H344.583Z" fill="#130F40"/>
<path d="M394.437 32.1045C390.003 32.1045 386.644 33.7164 384.83 36.2015V33.0448H374.753V66.6269H384.83V48.291C384.83 43.5224 387.383 41.3731 391.078 41.3731C394.303 41.3731 396.923 43.3209 396.923 47.4851V66.6269H407V46.0075C407 36.9403 401.222 32.1045 394.437 32.1045Z" fill="#130F40"/>
</svg>
