<svg width="189" height="89" viewBox="0 0 189 89" fill="none" xmlns="http://www.w3.org/2000/svg">
<path d="M49.882 5.63921C42.2744 -1.89237 30.0261 -1.89237 22.4184 5.71529C14.8108 13.3229 14.8108 25.5713 22.3423 33.1789L49.882 5.63921Z" fill="#4172B7"/>
<path d="M37.3288 21.4631C44.8604 29.0708 44.8604 41.3191 37.2527 48.9268C29.645 56.5344 17.3967 56.5344 9.78906 49.0028L37.3288 21.4631Z" fill="#E95E3E"/>
<path d="M8.19202 44.2101C12.2255 44.2101 15.4954 40.9403 15.4954 36.9067C15.4954 32.8732 12.2255 29.6034 8.19202 29.6034C4.15849 29.6034 0.888672 32.8732 0.888672 36.9067C0.888672 40.9403 4.15849 44.2101 8.19202 44.2101Z" fill="#F8CE38"/>
<path d="M51.4791 24.9627C55.5127 24.9627 58.7825 21.6928 58.7825 17.6593C58.7825 13.6258 55.5127 10.356 51.4791 10.356C47.4456 10.356 44.1758 13.6258 44.1758 17.6593C44.1758 21.6928 47.4456 24.9627 51.4791 24.9627Z" fill="#F8CE38"/>
<path opacity="0.5" d="M22.3429 33.1029L48.6654 6.85645L18.5391 27.5493C19.452 29.6033 20.7453 31.5052 22.3429 33.1029Z" fill="#30568A"/>
<path opacity="0.4" d="M9.86523 48.9267L36.1877 22.6042L15.4188 52.8066C13.3648 51.8176 11.5389 50.6004 9.86523 48.9267Z" fill="#B0472D"/>
<path d="M61.2179 52.8827C62.4351 54.3282 63.6523 55.3172 64.8696 56.0779C66.0868 56.7626 67.304 57.143 68.5212 57.143C69.6624 57.143 70.5753 56.8387 71.26 56.2301C71.9447 55.6215 72.3251 54.8607 72.3251 53.9478C72.3251 52.9588 72.0208 52.122 71.4121 51.5894C70.8035 51.0569 69.3581 50.4483 67.1519 49.9157C64.1088 49.0789 62.0547 48.0138 60.7614 46.7205C59.5442 45.4272 58.8595 43.6014 58.8595 41.3952C58.8595 38.4282 59.8485 36.0698 61.8265 34.244C63.8045 32.4181 66.315 31.4291 69.4342 31.4291C71.1078 31.4291 72.7054 31.6574 74.227 32.1138C75.7485 32.5703 77.194 33.255 78.5633 34.1679L75.9767 40.1779C75.0638 39.3411 74.0748 38.7325 73.0858 38.3521C72.0968 37.9717 71.1078 37.7435 70.1188 37.7435C69.1298 37.7435 68.293 37.9717 67.6844 38.5043C67.0758 39.0368 66.7715 39.5693 66.7715 40.3301C66.7715 41.0909 67.0758 41.6995 67.6083 42.1559C68.1409 42.6124 69.2059 43.0689 70.8035 43.4492C70.8796 43.4492 71.0318 43.5253 71.1839 43.5253C74.6074 44.4382 76.8136 45.4272 77.8786 46.5684C78.6394 47.3291 79.172 48.2421 79.5523 49.3071C79.9327 50.3722 80.0849 51.5133 80.0849 52.8067C80.0849 56.0779 79.0198 58.6645 76.8897 60.6425C74.7595 62.6205 71.8686 63.6095 68.3691 63.6095C66.2389 63.6095 64.2609 63.2291 62.5112 62.5444C60.7614 61.7837 59.0877 60.6425 57.4141 59.121L61.2179 52.8827Z" fill="#38333F"/>
<path d="M90.3547 62.7727V39.3412H83.5078V32.1139H105.646V39.3412H98.7992V62.7727H90.3547Z" fill="#38333F"/>
<path d="M143.761 62.7727V39.3412H136.914V32.1139H159.052V39.3412H152.205V62.7727H143.761Z" fill="#38333F"/>
<path d="M165.519 52.8828C166.736 54.3282 167.953 55.3172 169.17 56.078C170.388 56.7627 171.605 57.1431 172.822 57.1431C173.963 57.1431 174.876 56.8388 175.561 56.2302C176.245 55.6215 176.626 54.8608 176.626 53.9479C176.626 52.9589 176.322 52.122 175.713 51.5895C175.104 51.057 173.659 50.4483 171.453 49.9158C168.486 49.079 166.356 48.0139 165.062 46.7206C163.845 45.4273 163.16 43.6014 163.16 41.3952C163.16 38.4282 164.149 36.0699 166.127 34.244C168.105 32.4182 170.616 31.4292 173.735 31.4292C175.409 31.4292 177.006 31.6574 178.528 32.1139C180.049 32.5703 181.495 33.255 182.864 34.168L180.278 40.178C179.365 39.3412 178.376 38.7326 177.387 38.3522C176.398 37.9718 175.409 37.7436 174.42 37.7436C173.431 37.7436 172.594 37.9718 171.985 38.5043C171.377 38.9608 171.072 39.5694 171.072 40.3302C171.072 41.0909 171.377 41.6995 171.909 42.156C172.442 42.6125 173.507 43.0689 175.104 43.4493C175.18 43.4493 175.333 43.5254 175.485 43.5254C178.908 44.4383 181.114 45.4273 182.179 46.5684C182.94 47.3292 183.473 48.2421 183.853 49.3072C184.234 50.3723 184.386 51.5134 184.386 52.8067C184.386 56.078 183.321 58.6646 181.19 60.6426C179.06 62.6206 176.169 63.6096 172.67 63.6096C170.54 63.6096 168.562 63.2292 166.812 62.5445C165.062 61.7837 163.389 60.6426 161.715 59.1211L165.519 52.8828Z" fill="#38333F"/>
<path d="M123.372 31.8857L123.295 31.6575H122.535L108.156 62.6967H115.003L117.514 56.991H127.48L129.914 62.6967H137.826L123.372 31.8857ZM119.948 51.5135L122.611 45.5795L125.121 51.5135H119.948Z" fill="#38333F"/>
<path d="M118.141 86.1561C117.624 86.1561 117.187 86.026 116.83 85.7658C116.472 85.5022 116.202 85.1466 116.018 84.6991C115.834 84.2482 115.742 83.7434 115.742 83.1849C115.742 82.616 115.834 82.1096 116.018 81.6655C116.205 81.218 116.479 80.8659 116.84 80.6092C117.201 80.3525 117.645 80.2242 118.172 80.2242C118.685 80.2242 119.126 80.3543 119.494 80.6144C119.861 80.8746 120.142 81.2284 120.337 81.6759C120.534 82.1234 120.633 82.6264 120.633 83.1849C120.633 83.7469 120.534 84.2516 120.337 84.6991C120.139 85.1466 119.854 85.5022 119.483 85.7658C119.112 86.026 118.665 86.1561 118.141 86.1561ZM115.612 86V78.507H116.382V81.7696H116.299V86H115.612ZM118.063 85.4432C118.455 85.4432 118.781 85.3444 119.041 85.1466C119.301 84.9489 119.495 84.6801 119.624 84.3401C119.756 83.9967 119.822 83.6116 119.822 83.1849C119.822 82.7617 119.757 82.3801 119.629 82.0402C119.501 81.7002 119.305 81.4314 119.041 81.2336C118.781 81.0359 118.45 80.937 118.047 80.937C117.655 80.937 117.329 81.0324 117.069 81.2232C116.812 81.414 116.62 81.6794 116.491 82.0194C116.363 82.3559 116.299 82.7444 116.299 83.1849C116.299 83.6186 116.363 84.0071 116.491 84.3505C116.62 84.6905 116.814 84.9576 117.074 85.1518C117.334 85.3461 117.664 85.4432 118.063 85.4432ZM122.303 88.4977L123.39 85.5473L123.406 86.4215L120.945 80.3803H121.756L123.775 85.4328H123.442L125.305 80.3803H126.086L123.068 88.4977H122.303Z" fill="#38333F"/>
<path d="M158.976 81.0311L155.02 76.8469C154.944 76.7708 154.868 76.6947 154.716 76.6947C154.64 76.6947 154.487 76.6947 154.411 76.6947C154.335 76.6947 154.259 76.7708 154.183 76.9229C154.107 76.999 154.107 77.0751 154.107 77.2272V82.7808H155.172V78.5205L159.128 82.7047C159.204 82.7808 159.204 82.7808 159.28 82.8569C159.356 82.8569 159.432 82.933 159.508 82.933C159.585 82.933 159.661 82.933 159.737 82.8569C159.813 82.8569 159.889 82.7808 159.889 82.7047C159.965 82.6287 159.965 82.6287 159.965 82.5526C159.965 82.4765 160.041 82.4004 160.041 82.3244V76.8469H158.976V81.0311ZM152.509 80.4224V79.3574H149.086V80.4224H152.509ZM147.869 76.8469C147.793 76.8469 147.717 76.9229 147.717 76.9229C147.641 76.999 147.641 76.999 147.641 77.0751C147.641 77.1512 147.564 77.2272 147.564 77.3033V81.2593C147.564 81.5636 147.641 81.7918 147.717 81.944C147.793 82.0961 147.945 82.3244 148.097 82.4004C148.249 82.4765 148.401 82.6287 148.63 82.7047C148.782 82.7808 149.01 82.7808 149.162 82.7808H153.118V81.7158H149.162C149.01 81.7158 148.934 81.7158 148.858 81.6397C148.782 81.5636 148.782 81.4875 148.782 81.3354V77.9119H153.118V76.8469H148.173C148.021 76.8469 147.945 76.8469 147.869 76.8469ZM167.116 76.999C167.04 76.9229 167.04 76.9229 166.964 76.9229C166.888 76.9229 166.812 76.8469 166.736 76.8469H164.301C163.845 76.8469 163.464 76.9229 163.084 77.0751C162.704 77.2272 162.399 77.4555 162.095 77.6837C161.791 77.9119 161.639 78.2923 161.486 78.6727C161.334 79.0531 161.258 79.4335 161.258 79.8899V82.933H162.323V81.4875H166.127V82.933H167.192V77.4555C167.192 77.3794 167.192 77.3033 167.116 77.2272C167.04 77.1512 167.116 77.0751 167.116 76.999ZM166.127 80.2703H162.323V79.8138C162.323 79.5095 162.399 79.2813 162.475 79.0531C162.552 78.8248 162.704 78.6727 162.78 78.5205C162.932 78.3684 163.084 78.2923 163.236 78.2162C163.388 78.1402 163.541 78.0641 163.693 78.0641C163.845 77.988 163.921 77.988 164.073 77.988C164.149 77.988 164.225 77.988 164.301 77.988H166.203V80.2703H166.127ZM174.267 80.2703C174.191 80.1181 174.115 80.0421 173.963 79.8899C173.887 79.8138 173.735 79.6617 173.583 79.5856C173.735 79.3574 173.811 79.2052 173.887 78.977C173.963 78.7488 173.963 78.5205 173.963 78.3684V78.1402C173.963 77.9119 173.887 77.6837 173.811 77.5315C173.735 77.3794 173.583 77.2272 173.507 77.1512C173.354 77.0751 173.202 76.999 173.05 76.9229C172.898 76.8469 172.746 76.8469 172.594 76.8469H168.942C168.866 76.8469 168.79 76.8469 168.714 76.9229C168.638 76.9229 168.562 76.999 168.562 76.999C168.485 77.0751 168.486 77.0751 168.486 77.1512C168.486 77.2272 168.409 77.3033 168.409 77.3794V82.3244C168.409 82.4004 168.409 82.4765 168.486 82.5526C168.486 82.6287 168.562 82.7047 168.562 82.7047C168.638 82.7808 168.638 82.7808 168.714 82.7808C168.79 82.7808 168.866 82.8569 168.942 82.8569H173.05C173.278 82.8569 173.507 82.7808 173.659 82.7047C173.811 82.6287 173.963 82.4765 174.039 82.4004C174.115 82.2483 174.191 82.0961 174.267 81.944C174.343 81.7918 174.343 81.6397 174.343 81.4875V81.2593C174.343 81.0311 174.343 80.8789 174.267 80.6507C174.419 80.5746 174.343 80.4225 174.267 80.2703ZM173.43 81.4875C173.43 81.5636 173.43 81.5636 173.43 81.6397L173.354 81.7158H173.278H173.202H169.627V77.9119H172.746C172.898 77.9119 172.974 77.988 172.974 78.1402V78.3684C172.974 78.5205 172.974 78.5966 172.898 78.7488C172.822 78.8248 172.822 78.977 172.746 79.0531C172.67 79.1292 172.594 79.2052 172.441 79.2052C172.365 79.2813 172.213 79.2813 172.061 79.2813H170.083V80.3464H172.518C172.67 80.3464 172.822 80.3464 172.898 80.4224C172.974 80.4985 173.126 80.4985 173.202 80.5746C173.278 80.6507 173.354 80.7268 173.354 80.8789C173.354 81.0311 173.43 81.1071 173.43 81.2593V81.4875ZM185.755 80.8789C185.907 80.8789 186.059 80.8789 186.211 80.8028C186.363 80.8028 186.516 80.7268 186.668 80.6507C186.82 80.5746 186.972 80.4985 187.124 80.4224C187.276 80.3464 187.352 80.1942 187.505 80.0421C187.657 79.8899 187.657 79.7378 187.733 79.5095C187.809 79.2813 187.809 79.0531 187.809 78.8248V78.1402C187.809 77.988 187.809 77.8358 187.733 77.6837C187.657 77.5315 187.581 77.3794 187.505 77.2272C187.429 77.0751 187.276 76.999 187.124 76.9229C186.972 76.8469 186.744 76.7708 186.516 76.7708H182.408C182.331 76.7708 182.255 76.7708 182.179 76.8469C182.103 76.8469 182.027 76.9229 182.027 76.9229C181.951 76.999 181.951 76.999 181.951 77.0751C181.951 77.1512 181.875 77.2272 181.875 77.3033V82.7808H182.94V77.8359H186.516H186.592H186.668L186.744 77.9119C186.744 77.9119 186.744 77.988 186.744 78.0641V78.7488C186.744 78.9009 186.744 78.977 186.668 79.1291C186.592 79.2052 186.592 79.3574 186.516 79.4335C186.44 79.5095 186.363 79.5856 186.211 79.5856C186.135 79.6617 185.983 79.6617 185.831 79.6617H183.397V80.7268H184.157L186.44 82.7047H188.113L185.755 80.8789ZM176.55 76.8469H175.485V82.3244C175.485 82.4004 175.485 82.4765 175.561 82.5526C175.561 82.6287 175.637 82.7047 175.637 82.7047C175.713 82.7808 175.713 82.7808 175.789 82.7808C175.865 82.7808 175.941 82.8569 176.017 82.8569H180.962V81.7918H176.55V76.8469Z" fill="#38333F"/>
<path d="M138.893 85.1392L135.241 83.6937L135.165 82.7047L134.252 82.4765V77.1511L136.839 74.3363L141.175 75.8578L141.251 77.1511H142.468V82.3243L138.893 85.1392Z" fill="white"/>
<path d="M141.479 76.8468H141.25V78.9009L142.163 79.5856C142.239 79.6616 142.239 79.6616 142.239 79.8138C142.239 79.8899 142.239 79.9659 142.163 80.042L141.174 80.8028C140.946 81.6396 140.337 82.3243 139.501 82.6286L140.109 83.0851C140.185 83.1612 140.185 83.1612 140.185 83.3133C140.185 83.3894 140.185 83.4655 140.109 83.5415L138.664 84.6066C138.588 84.6827 138.512 84.6827 138.435 84.6066C138.359 84.5305 138.283 84.4545 138.283 84.3784V83.6937H135.24C135.545 84.987 136.686 85.8999 137.979 85.8999H141.402C143 85.8999 144.217 84.6066 144.217 83.0851V79.6616C144.293 78.1401 143 76.8468 141.479 76.8468Z" fill="#38333F"/>
<path d="M136.457 76.5425C136.381 76.4664 136.381 76.4664 136.381 76.3143C136.381 76.2382 136.381 76.1621 136.457 76.0861L137.903 75.021C137.979 74.9449 138.055 74.9449 138.131 75.021C138.207 75.0971 138.283 75.1731 138.283 75.2492V75.9339H141.174C140.946 74.6406 139.729 73.6516 138.359 73.6516H134.936C133.338 73.6516 132.045 74.9449 132.045 76.5425V79.966C132.045 81.5636 133.338 82.8569 134.936 82.8569H135.24V80.6507L134.403 80.042C134.327 79.966 134.327 79.966 134.327 79.8138C134.327 79.7377 134.327 79.6617 134.403 79.5856L135.316 78.9009C135.544 78.064 136.229 77.3794 137.066 76.999L136.457 76.5425Z" fill="#38333F"/>
<path d="M140.718 81.031C140.642 81.1071 140.566 81.1071 140.49 81.031C140.413 80.9549 140.337 80.8789 140.337 80.8028V80.1181H136.229V80.8028C136.229 80.8789 136.153 80.9549 136.077 81.031C136.001 81.1071 135.925 81.031 135.849 81.031L135.24 80.5746V82.7808H138.283V82.1722C138.283 82.0961 138.359 82.02 138.435 81.9439C138.512 81.8679 138.588 81.9439 138.664 81.9439L139.501 82.5526C140.261 82.2482 140.946 81.5636 141.174 80.7267L140.718 81.031Z" fill="#38333F"/>
<path d="M138.283 77.4554C138.283 77.5315 138.207 77.6076 138.131 77.6836C138.055 77.7597 137.979 77.6836 137.903 77.6836L137.066 76.999C136.229 77.3033 135.621 77.9879 135.316 78.9009L135.849 78.5205C135.925 78.4444 136.001 78.4444 136.077 78.5205C136.153 78.5966 136.229 78.6726 136.229 78.7487V79.4334H140.337V78.7487C140.337 78.6726 140.414 78.5966 140.49 78.5205C140.566 78.4444 140.642 78.5205 140.718 78.5205L141.25 78.9009V76.8468H138.283V77.4554Z" fill="#38333F"/>
</svg>
