<svg width="52" height="60" viewBox="0 0 52 60" fill="none" xmlns="http://www.w3.org/2000/svg">
<g clip-path="url(#clip0_165_498)">
<path d="M25.9995 59.2378C25.1922 59.2378 24.4388 59.0225 23.7391 58.6458L16.5808 54.3939C15.5044 53.8018 16.0426 53.5866 16.3655 53.4789C17.8186 52.9946 18.0877 52.8869 19.5946 52.0256C19.7563 51.918 19.9716 51.9718 20.1328 52.0794L25.6228 55.3626C25.838 55.4702 26.1071 55.4702 26.2686 55.3626L47.7434 42.93C47.9587 42.8223 48.0664 42.6071 48.0664 42.338V17.5261C48.0664 17.257 47.9587 17.0418 47.7434 16.9341L26.2686 4.55512C26.0533 4.44749 25.7842 4.44749 25.6228 4.55512L4.14793 16.9343C3.93266 17.042 3.82502 17.3111 3.82502 17.5263V42.338C3.82502 42.5532 3.93266 42.8223 4.14793 42.93L10.0146 46.3206C13.1902 47.9352 15.1813 46.0515 15.1813 44.1678V19.6789C15.1813 19.356 15.4506 19.0331 15.8273 19.0331H18.5723C18.8952 19.0331 19.2181 19.3022 19.2181 19.6789V44.1676C19.2181 48.4195 16.9037 50.8952 12.867 50.8952C11.6292 50.8952 10.6605 50.8952 7.91568 49.5497L2.26426 46.3206C0.864966 45.5131 0.00386047 44.0062 0.00386047 42.3916V17.5802C0.00386047 15.9656 0.864966 14.4587 2.26426 13.6512L23.7391 1.21854C25.0846 0.465075 26.9144 0.465075 28.2599 1.21854L49.7347 13.6512C51.134 14.4585 51.9952 15.9654 51.9952 17.5802V42.3918C51.9952 44.0064 51.134 45.5133 49.7347 46.3206L28.2599 58.7536C27.5603 59.0765 26.753 59.238 25.9995 59.238V59.2378ZM32.6195 42.1763C23.2007 42.1763 21.2632 37.8708 21.2632 34.2109C21.2632 33.888 21.5323 33.565 21.909 33.565H24.7076C25.0306 33.565 25.2999 33.7803 25.2999 34.1032C25.7304 36.9557 26.9682 38.3551 32.6733 38.3551C37.1943 38.3551 39.132 37.3326 39.132 34.9107C39.132 33.5112 38.5938 32.4887 31.5431 31.7888C25.6766 31.1968 22.0167 29.9051 22.0167 25.2229C22.0167 20.8631 25.6764 18.2798 31.8122 18.2798C38.7012 18.2798 42.092 20.6479 42.5226 25.8147C42.5226 25.9761 42.4688 26.1376 42.3611 26.2991C42.2535 26.4067 42.092 26.5143 41.9306 26.5143H39.132C38.8627 26.5143 38.5938 26.2991 38.5398 26.03C37.8939 23.0699 36.2255 22.1012 31.8122 22.1012C26.8608 22.1012 26.2686 23.8234 26.2686 25.115C26.2686 26.676 26.9682 27.1602 33.642 28.0213C40.2622 28.8824 43.3837 30.1204 43.3837 34.7491C43.3299 39.4854 39.4549 42.1763 32.6195 42.1763Z" fill="#539E43"/>
</g>
<defs>
<clipPath id="clip0_165_498">
<rect width="52" height="58.6933" fill="white" transform="translate(0 0.653381)"/>
</clipPath>
</defs>
</svg>
